<svg width="104" height="26" viewBox="0 0 104 26" fill="none" xmlns="http://www.w3.org/2000/svg">
<path d="M12.4715 3.74773C12.1395 2.61501 12.8083 1.41296 14.0033 1.2863C15.8387 1.09174 17.7045 1.29295 19.4671 1.88658C21.9195 2.71255 24.0535 4.25822 25.5796 6.31393C27.1056 8.36965 27.9499 10.8359 27.9978 13.3781C28.0458 15.9204 27.2951 18.4155 25.8476 20.5252C24.4001 22.6348 22.3258 24.2568 19.9062 25.1711C17.4866 26.0854 14.8387 26.2478 12.3218 25.6362C9.80486 25.0246 7.54069 23.6686 5.83643 21.7523C4.61153 20.375 3.71848 18.756 3.21073 17.0156C2.88016 15.8825 3.7637 14.8221 4.95883 14.6969C6.15396 14.5717 7.20028 15.4391 7.6339 16.5383C7.97963 17.4147 8.47979 18.2308 9.11688 18.9472C10.2342 20.2035 11.7186 21.0925 13.3687 21.4935C15.0188 21.8944 16.7548 21.788 18.3411 21.1886C19.9274 20.5891 21.2873 19.5258 22.2363 18.1427C23.1853 16.7596 23.6774 15.1237 23.646 13.457C23.6146 11.7903 23.0611 10.1735 22.0606 8.82572C21.0601 7.47798 19.661 6.46463 18.0532 5.92313C17.1364 5.61437 16.1771 5.46753 15.2189 5.48372C14.0172 5.50402 12.8036 4.88044 12.4715 3.74773Z" fill="#5353CB"/>
<path d="M7.09644 0.13244C7.95225 -0.226129 8.96094 0.163593 9.14929 1.05728C9.33454 1.93624 9.37326 2.84259 9.26031 3.74068C9.07826 5.18813 8.50871 6.56254 7.60953 7.72425C6.71034 8.88596 5.51357 9.79357 4.14082 10.3549C3.28908 10.7031 2.38842 10.9104 1.47525 10.9718C0.546778 11.0344 -0.107351 10.1866 0.0146327 9.28186L0.0475069 9.03805C0.169491 8.13334 1.03489 7.52628 1.94326 7.32776C2.21715 7.26791 2.48621 7.18441 2.74721 7.07769C3.53 6.75763 4.21244 6.24008 4.72518 5.57763C5.23792 4.91519 5.5627 4.13146 5.66651 3.30607C5.70112 3.03087 5.71076 2.75431 5.69587 2.47954C5.64651 1.56825 6.00999 0.587641 6.8658 0.229073L7.09644 0.13244Z" fill="#5CD1DF"/>
<path d="M46.4361 13.3182C46.4361 14.6664 46.1805 15.8134 45.6694 16.7592C45.1623 17.705 44.4701 18.4274 43.5927 18.9265C42.7193 19.4215 41.7373 19.669 40.6467 19.669C39.5479 19.669 38.5619 19.4195 37.6886 18.9205C36.8152 18.4214 36.125 17.699 35.6179 16.7532C35.1108 15.8074 34.8572 14.6624 34.8572 13.3182C34.8572 11.9699 35.1108 10.8229 35.6179 9.87713C36.125 8.93134 36.8152 8.21094 37.6886 7.71591C38.5619 7.21686 39.5479 6.96733 40.6467 6.96733C41.7373 6.96733 42.7193 7.21686 43.5927 7.71591C44.4701 8.21094 45.1623 8.93134 45.6694 9.87713C46.1805 10.8229 46.4361 11.9699 46.4361 13.3182ZM43.7859 13.3182C43.7859 12.4448 43.6551 11.7083 43.3935 11.1087C43.1359 10.509 42.7717 10.0542 42.3008 9.74432C41.8299 9.43442 41.2785 9.27947 40.6467 9.27947C40.0148 9.27947 39.4634 9.43442 38.9925 9.74432C38.5217 10.0542 38.1554 10.509 37.8938 11.1087C37.6362 11.7083 37.5075 12.4448 37.5075 13.3182C37.5075 14.1915 37.6362 14.928 37.8938 15.5277C38.1554 16.1274 38.5217 16.5822 38.9925 16.892C39.4634 17.2019 40.0148 17.3569 40.6467 17.3569C41.2785 17.3569 41.8299 17.2019 42.3008 16.892C42.7717 16.5822 43.1359 16.1274 43.3935 15.5277C43.6551 14.928 43.7859 14.1915 43.7859 13.3182Z" fill="#1E1E1E"/>
<path d="M48.3241 19.5V10.2273H50.8174V11.8452H50.914C51.083 11.2696 51.3667 10.835 51.7652 10.5412C52.1636 10.2434 52.6224 10.0945 53.1416 10.0945C53.2704 10.0945 53.4092 10.1025 53.5582 10.1186C53.7071 10.1347 53.8379 10.1568 53.9506 10.185V12.467C53.8298 12.4308 53.6628 12.3986 53.4495 12.3704C53.2362 12.3422 53.041 12.3281 52.8639 12.3281C52.4856 12.3281 52.1475 12.4106 51.8497 12.5756C51.5559 12.7366 51.3225 12.962 51.1494 13.2518C50.9804 13.5415 50.8959 13.8756 50.8959 14.2539V19.5H48.3241Z" fill="#1E1E1E"/>
<path d="M59.0261 23.1705C58.193 23.1705 57.4786 23.0558 56.883 22.8263C56.2914 22.601 55.8205 22.2931 55.4703 21.9027C55.1202 21.5123 54.8928 21.0736 54.7882 20.5866L57.1667 20.2667C57.2392 20.4518 57.3539 20.6249 57.5108 20.7859C57.6678 20.9469 57.8751 21.0756 58.1326 21.1722C58.3942 21.2728 58.7122 21.3232 59.0865 21.3232C59.6459 21.3232 60.1067 21.1863 60.4689 20.9126C60.8352 20.643 61.0183 20.1902 61.0183 19.5543V17.858H60.9096C60.7969 18.1155 60.6279 18.359 60.4025 18.5884C60.1771 18.8178 59.8874 19.005 59.5332 19.1499C59.179 19.2947 58.7565 19.3672 58.2654 19.3672C57.5692 19.3672 56.9353 19.2062 56.3638 18.8842C55.7963 18.5582 55.3436 18.0612 55.0055 17.3931C54.6715 16.721 54.5044 15.8718 54.5044 14.8455C54.5044 13.7951 54.6755 12.9177 55.0176 12.2134C55.3597 11.5091 55.8145 10.9819 56.3819 10.6317C56.9534 10.2816 57.5792 10.1065 58.2594 10.1065C58.7786 10.1065 59.2132 10.1951 59.5634 10.3722C59.9135 10.5452 60.1953 10.7625 60.4086 11.0241C60.6259 11.2817 60.7929 11.5353 60.9096 11.7848H61.0062V10.2273H63.5598V19.5906C63.5598 20.3794 63.3667 21.0394 62.9803 21.5707C62.5939 22.1019 62.0587 22.5004 61.3745 22.766C60.6943 23.0356 59.9115 23.1705 59.0261 23.1705ZM59.0804 17.4354C59.495 17.4354 59.8451 17.3327 60.1309 17.1275C60.4206 16.9182 60.642 16.6204 60.7949 16.234C60.9519 15.8436 61.0304 15.3768 61.0304 14.8335C61.0304 14.2901 60.9539 13.8192 60.801 13.4208C60.648 13.0183 60.4267 12.7064 60.1369 12.4851C59.8471 12.2637 59.495 12.1531 59.0804 12.1531C58.6578 12.1531 58.3017 12.2678 58.0119 12.4972C57.7221 12.7225 57.5028 13.0365 57.3539 13.4389C57.205 13.8414 57.1305 14.3062 57.1305 14.8335C57.1305 15.3687 57.205 15.8316 57.3539 16.2219C57.5068 16.6083 57.7261 16.9081 58.0119 17.1214C58.3017 17.3307 58.6578 17.4354 59.0804 17.4354Z" fill="#1E1E1E"/>
<path d="M68.2505 19.6751C67.6589 19.6751 67.1317 19.5724 66.6689 19.3672C66.206 19.1579 65.8398 18.85 65.5701 18.4435C65.3045 18.033 65.1717 17.5219 65.1717 16.9102C65.1717 16.395 65.2663 15.9624 65.4554 15.6122C65.6446 15.2621 65.9022 14.9804 66.2282 14.767C66.5542 14.5537 66.9244 14.3928 67.339 14.2841C67.7575 14.1754 68.1962 14.099 68.655 14.0547C69.1943 13.9983 69.629 13.946 69.959 13.8977C70.289 13.8454 70.5285 13.7689 70.6774 13.6683C70.8263 13.5677 70.9007 13.4188 70.9007 13.2216V13.1854C70.9007 12.803 70.78 12.5072 70.5385 12.2979C70.3011 12.0887 69.963 11.984 69.5243 11.984C69.0615 11.984 68.6932 12.0866 68.4196 12.2919C68.1459 12.4931 67.9648 12.7467 67.8762 13.0526L65.4977 12.8594C65.6184 12.2959 65.8559 11.8089 66.2101 11.3984C66.5642 10.9839 67.021 10.666 67.5804 10.4446C68.1439 10.2192 68.7959 10.1065 69.5364 10.1065C70.0516 10.1065 70.5446 10.1669 71.0154 10.2876C71.4904 10.4084 71.9109 10.5955 72.2772 10.8491C72.6474 11.1026 72.9392 11.4286 73.1525 11.8271C73.3658 12.2215 73.4725 12.6944 73.4725 13.2457V19.5H71.0336V18.2141H70.9611C70.8122 18.5039 70.613 18.7595 70.3635 18.9808C70.1139 19.1982 69.8141 19.3692 69.464 19.494C69.1138 19.6147 68.7093 19.6751 68.2505 19.6751ZM68.987 17.9002C69.3654 17.9002 69.6994 17.8258 69.9892 17.6768C70.2789 17.5239 70.5063 17.3187 70.6713 17.0611C70.8364 16.8035 70.9189 16.5117 70.9189 16.1857V15.2017C70.8384 15.254 70.7277 15.3023 70.5868 15.3466C70.45 15.3868 70.295 15.4251 70.122 15.4613C69.9489 15.4935 69.7759 15.5237 69.6028 15.5518C69.4297 15.576 69.2728 15.5981 69.1319 15.6183C68.8301 15.6625 68.5665 15.733 68.3411 15.8295C68.1157 15.9261 67.9406 16.0569 67.8159 16.2219C67.6911 16.3829 67.6287 16.5842 67.6287 16.8256C67.6287 17.1758 67.7555 17.4434 68.0091 17.6286C68.2666 17.8097 68.5926 17.9002 68.987 17.9002Z" fill="#1E1E1E"/>
<path d="M78.0394 14.1392V19.5H75.4677V10.2273H77.9187V11.8633H78.0273C78.2326 11.324 78.5767 10.8974 79.0597 10.5835C79.5426 10.2655 80.1282 10.1065 80.8164 10.1065C81.4603 10.1065 82.0218 10.2474 82.5007 10.5291C82.9796 10.8108 83.3519 11.2133 83.6175 11.7365C83.8832 12.2557 84.016 12.8755 84.016 13.5959V19.5H81.4442V14.0547C81.4483 13.4872 81.3034 13.0445 81.0096 12.7266C80.7158 12.4046 80.3113 12.2436 79.7962 12.2436C79.45 12.2436 79.1442 12.3181 78.8785 12.467C78.6169 12.6159 78.4117 12.8332 78.2628 13.119C78.1179 13.4007 78.0434 13.7408 78.0394 14.1392Z" fill="#1E1E1E"/>
<path d="M86.0429 19.5V10.2273H88.6146V19.5H86.0429ZM87.3348 9.03196C86.9524 9.03196 86.6244 8.90518 86.3508 8.65163C86.0811 8.39406 85.9463 8.08617 85.9463 7.72798C85.9463 7.37382 86.0811 7.06996 86.3508 6.81641C86.6244 6.55883 86.9524 6.43004 87.3348 6.43004C87.7171 6.43004 88.0431 6.55883 88.3128 6.81641C88.5864 7.06996 88.7233 7.37382 88.7233 7.72798C88.7233 8.08617 88.5864 8.39406 88.3128 8.65163C88.0431 8.90518 87.7171 9.03196 87.3348 9.03196Z" fill="#1E1E1E"/>
<path d="M92.8239 10.2273L94.5263 13.4691L96.271 10.2273H98.9091L96.2227 14.8636L98.9815 19.5H96.3555L94.5263 16.2944L92.7273 19.5H90.071L92.8239 14.8636L90.1676 10.2273H92.8239Z" fill="#1E1E1E"/>
<path d="M101.94 19.657C101.541 19.657 101.199 19.5161 100.913 19.2344C100.632 18.9486 100.491 18.6065 100.491 18.2081C100.491 17.8137 100.632 17.4756 100.913 17.1939C101.199 16.9122 101.541 16.7713 101.94 16.7713C102.326 16.7713 102.664 16.9122 102.954 17.1939C103.244 17.4756 103.388 17.8137 103.388 18.2081C103.388 18.4737 103.32 18.7172 103.183 18.9386C103.05 19.1559 102.875 19.331 102.658 19.4638C102.441 19.5926 102.201 19.657 101.94 19.657Z" fill="#1E1E1E"/>
</svg>
